<svg width="176" height="38" viewBox="0 0 176 38" fill="none" xmlns="http://www.w3.org/2000/svg">
<path d="M113.699 20.9148C114.138 20.4734 114.48 19.9449 114.702 19.3634C114.924 18.7819 115.021 18.1602 114.988 17.5386C114.953 14.6156 112.65 12.6425 109.256 12.6425C107.948 12.6301 106.654 12.9088 105.467 13.4584C104.279 14.0079 103.23 14.8145 102.393 15.8199C100.801 17.7422 99.9419 20.1669 99.9694 22.6628C100.022 27.0094 102.618 29.5028 107.087 29.5028C108.145 29.5028 110.84 29.38 113.044 28.2517L113.147 28.202L112.743 24.4722L112.521 24.5803C111.169 25.2435 109.68 25.5809 108.174 25.5654C106.85 25.5654 105.836 25.1649 105.251 24.3962C104.989 23.9928 104.83 23.5309 104.79 23.0516C109.23 23.1597 112.141 22.4523 113.699 20.9148ZM105.246 19.3188C105.628 17.828 106.818 16.3957 108.718 16.3957C109.671 16.3957 110.267 16.8488 110.276 17.5825C110.283 17.7368 110.258 17.8909 110.201 18.0345C110.144 18.1781 110.057 18.308 109.946 18.4156C109.326 19.0382 107.832 19.3188 105.246 19.3188Z" fill="white"/>
<path d="M102.229 13.0019H95.7982L91.7059 17.825C91.2996 18.3307 90.9196 18.816 90.5776 19.2866L92.9424 5.87549L87.3125 7.92164L83.5886 28.9766L83.5535 29.1783H88.815L89.7065 24.136L91.0307 22.8001L93.6615 29.1753H100.107L95.2253 19.6198L102.229 13.0019Z" fill="white"/>
<path d="M24.3055 12.6479C23.3694 12.6571 22.4468 12.8712 21.6024 13.2752C20.7581 13.6792 20.0125 14.2633 19.4181 14.9864L19.6461 12.9987H15.3462L11.365 35.5883L16.6938 33.6503L17.5444 28.9383C18.4521 29.3438 19.4384 29.5435 20.4324 29.5229C26.2785 29.5229 29.7015 24.0684 29.6371 18.7952C29.5904 15.0653 27.4975 12.6479 24.3055 12.6479ZM20.2248 25.6644C19.5104 25.6905 18.8116 25.451 18.2635 24.9921L18.7925 21.689C19.3099 18.7309 20.8065 16.7432 22.5136 16.7432C24.2207 16.7432 24.4048 18.5964 24.4136 19.1635C24.4458 22.1684 22.6247 25.6644 20.2248 25.6644Z" fill="white"/>
<path d="M13.2384 16.9713L13.9399 13.0018H10.8356L10.9438 12.3938C11.0841 11.5899 11.6249 9.71622 13.5746 9.71622C13.8833 9.71564 14.1915 9.74303 14.4953 9.79806L15.2261 5.63853C14.6276 5.53564 14.0211 5.48576 13.4138 5.48945C11.6919 5.48756 10.0185 6.05942 8.65795 7.11468C7.14379 8.29853 6.04764 10.2716 5.63841 12.5282L5.55656 13.0018H3.49579L2.79426 16.9713H4.86672L2.71533 29.1781H8.01487L10.1692 16.9713H13.2384Z" fill="white"/>
<path d="M71.6998 19.681C72.1003 17.401 71.7963 15.6384 70.7908 14.4429C69.7852 13.2473 68.1015 12.6481 65.7748 12.6481C63.5376 12.6204 61.3235 13.1022 59.3001 14.057L59.1949 14.1096L59.5808 17.6583L59.8058 17.5326C61.1929 16.7953 62.7339 16.3948 64.3044 16.3633C65.3392 16.3633 66.0583 16.5826 66.4091 17.0181C66.5354 17.1854 66.6235 17.3784 66.6669 17.5835C66.7103 17.7886 66.7081 18.0007 66.6604 18.2049L66.6458 18.2896C60.7383 18.2896 56.9529 20.5463 56.2601 24.4866C56.1326 25.1086 56.143 25.7511 56.2905 26.3687C56.4379 26.9863 56.7189 27.5641 57.1137 28.0615C57.9263 29.029 59.1598 29.5406 60.6915 29.5406C62.4645 29.5664 64.1814 28.9199 65.4971 27.7312V29.1927H70.0278L71.6998 19.681ZM65.9414 23.215C65.8948 23.4876 65.8183 23.7542 65.7134 24.0101C65.4529 24.5129 65.0626 24.9369 64.5831 25.2381C64.1036 25.5393 63.5522 25.7067 62.9861 25.723C62.7614 25.7428 62.5351 25.7127 62.3234 25.6349C62.1117 25.5571 61.9198 25.4335 61.7614 25.2729C61.6359 25.0985 61.5504 24.8986 61.511 24.6874C61.4716 24.4762 61.4792 24.2589 61.5334 24.051C61.8111 22.4901 63.3808 21.7126 66.2103 21.7126L65.9414 23.215Z" fill="white"/>
<path d="M123.877 25.153L123.699 25.1793C123.278 25.2332 122.854 25.2547 122.43 25.2436C121.629 25.2436 121.261 24.887 121.261 24.0744C121.284 23.4115 121.361 22.7516 121.492 22.1013L122.471 16.8632H125.338L126.022 12.993H123.17L123.947 8.6084L118.706 10.523L118.253 13.0076H116.207L115.546 16.8749H117.551L116.435 22.987C116.241 23.9671 116.144 24.9637 116.142 25.9627C116.169 28.1989 117.785 29.5347 120.469 29.5347C121.375 29.5496 122.279 29.4394 123.155 29.2073L123.877 25.153Z" fill="white"/>
<path d="M133.348 19.2687C132.065 18.6636 131.489 18.1521 131.483 17.6113C131.483 16.8806 132.231 16.3895 133.371 16.3895C134.445 16.3902 135.506 16.6277 136.478 17.0852L136.654 17.167L137.335 13.2998C136.408 12.8876 135.023 12.6479 133.517 12.6479C129.32 12.6479 126.414 14.9543 126.455 18.2573C126.476 20.0112 127.659 21.4903 129.963 22.6186C131.535 23.3844 131.857 23.9076 131.866 24.5069C131.866 25.2698 131.158 25.7609 130.045 25.7609C128.639 25.7609 126.967 25.1763 125.952 24.6793L125.777 24.5916L125.09 28.4969C126.172 29.1078 127.925 29.5024 129.659 29.5024C134.239 29.5024 137.057 27.3013 137.013 23.7615C137.002 21.4172 135.049 20.131 133.348 19.2687Z" fill="white"/>
<path d="M54.6794 14.0573C53.9048 13.1365 52.7238 12.6484 51.2623 12.6484C50.1325 12.6354 49.018 12.91 48.0235 13.4464C47.1817 13.9154 46.4184 14.5131 45.7611 15.2178C45.27 13.6247 43.7734 12.6484 41.7974 12.6484C40.8279 12.6397 39.8679 12.8399 38.9827 13.2353C38.0975 13.6307 37.3078 14.2122 36.6674 14.9401L37.1526 12.1865L32.2974 13.9404L29.6082 29.1784H34.7498L36.4014 19.8245C36.4628 19.4149 36.5954 19.0192 36.7931 18.6553C37.2315 17.8398 38.1085 16.9658 39.2572 16.9658C39.4756 16.9531 39.694 16.9896 39.8963 17.0725C40.0987 17.1555 40.2799 17.2828 40.4265 17.4451C40.8591 17.9596 40.9731 18.8891 40.7538 20.1314L39.152 29.193H44.2908L45.9774 19.7778C46.053 19.3556 46.1878 18.9462 46.3778 18.5618C46.7871 17.7784 47.6377 16.9394 48.7952 16.9394C49.0213 16.924 49.248 16.9596 49.4585 17.0435C49.669 17.1275 49.8579 17.2578 50.0112 17.4247C50.4643 17.9654 50.5695 18.9564 50.3211 20.3653L48.7543 29.1784H53.8931L55.5621 19.7105C56.0006 17.223 55.6966 15.2674 54.6794 14.0573Z" fill="white"/>
<path d="M85.2955 12.7151C84.9461 12.6559 84.5915 12.6334 84.2374 12.6479C82.7408 12.6479 80.7501 13.5511 79.4932 15.571L80.0778 12.2007L75.1846 13.9721L72.5012 29.1721H77.7628L79.2009 21.0021C79.2667 20.6375 79.3645 20.2795 79.4932 19.9322C80.0778 18.4385 81.4371 17.547 83.1412 17.547C83.5693 17.5473 83.9962 17.5904 84.4157 17.6756L84.5852 17.7078L85.4621 12.7385L85.2955 12.7151Z" fill="white"/>
<path d="M148.542 30.0259C148.913 29.757 149.276 29.4939 149.629 29.2279C149.922 29.0116 150.532 28.5498 150.553 28.5322C163.265 18.8481 165.712 11.6047 167.63 2.41162C161.903 16.7493 153.306 20.9673 148.67 24.0424C145.747 20.6224 144.672 15.8987 146.303 11.555C146.904 9.97381 147.828 8.53508 149.016 7.33033C150.203 6.12557 151.629 5.18116 153.201 4.55716C150.924 5.06664 148.809 6.13237 147.045 7.65906C145.28 9.18576 143.922 11.1259 143.09 13.3059C140.752 19.4882 143.166 26.3224 148.501 30.0669L148.542 30.0259Z" fill="#00BDFF"/>
<path d="M171.085 20.8475C169.305 25.5887 164.809 28.5586 159.846 28.81C162.976 24.2003 170.182 15.9923 167.823 2.42041C167.08 13.7035 163.467 19.7133 154.83 28.126C153.799 29.1315 152.695 30.175 151.518 31.2566L151.19 31.5489C151.433 31.6541 151.676 31.7535 151.924 31.8412C159.574 34.7146 168.022 31.0607 170.793 23.68C171.393 22.0768 171.691 20.3759 171.67 18.6639C171.545 19.4087 171.349 20.1399 171.085 20.8475Z" fill="white"/>
</svg>
