<svg width="171" height="47" viewBox="0 0 171 47" fill="none" xmlns="http://www.w3.org/2000/svg">
<path fill-rule="evenodd" clip-rule="evenodd" d="M139.282 26.4129C139.064 26.9942 138.669 27.4553 138.069 27.8101C137.336 28.2471 136.559 28.4596 135.687 28.4596C134.536 28.4596 133.567 28.1168 132.728 27.4102C132.037 26.8288 131.606 26.0972 131.422 25.185H143.843V26.4129H139.283H139.282ZM132.718 19.0529C133.55 18.241 134.512 17.8441 135.653 17.8441C136.816 17.8441 137.772 18.237 138.57 19.0348C139.015 19.4899 139.346 19.984 139.561 20.5283H131.718C131.937 19.991 132.271 19.5009 132.718 19.0529V19.0529ZM121.024 26.9391C120.327 27.9755 119.451 28.4596 118.267 28.4596C116.967 28.4596 116.044 27.9344 115.366 26.8128C114.782 25.8345 114.484 24.6057 114.484 23.1513C114.484 21.724 114.792 20.4952 115.399 19.4939C116.077 18.3673 116.989 17.8441 118.267 17.8441C119.45 17.8441 120.327 18.3272 121.023 19.3656C121.705 20.3779 122.049 21.6499 122.049 23.1513C122.049 24.6528 121.705 25.9278 121.024 26.9401V26.9391ZM104.334 26.9491C103.551 27.9655 102.484 28.4596 101.07 28.4596C99.6339 28.4596 98.5584 27.9655 97.7706 26.9431C97.0139 25.9809 96.648 24.74 96.648 23.1523C96.648 21.6088 97.0439 20.3438 97.8598 19.2854C98.6085 18.3151 99.657 17.8451 101.07 17.8451C102.482 17.8451 103.551 18.3382 104.334 19.3525C105.089 20.3438 105.459 21.5847 105.459 23.1513C105.459 24.72 105.089 25.9618 104.334 26.9491V26.9491ZM159.392 15.1789C157.97 13.9721 156.182 13.3597 154.08 13.3597C152.536 13.3597 151.097 13.7165 149.796 14.4282C149.544 14.5665 149.307 14.7128 149.086 14.8712V13.8087H143.843V17.7488C143.577 17.2928 143.281 16.8528 142.942 16.4408C141.186 14.2798 138.735 13.1863 135.653 13.1863C132.592 13.1863 130.11 14.2447 128.286 16.3316C127.562 17.1605 127.005 18.0796 126.6 19.0749C126.149 17.812 125.481 16.7195 124.596 15.8073C123.022 14.1806 121.056 13.3597 118.75 13.3597C117.507 13.3597 116.314 13.6273 115.198 14.1585C114.949 14.2788 114.713 14.4071 114.484 14.5484V13.8097H109.241V17.6065C108.814 16.9219 108.296 16.2965 107.684 15.7322C105.869 14.0433 103.637 13.1863 101.052 13.1863C98.4702 13.1863 96.2371 14.0433 94.4188 15.7322C92.4202 17.6045 91.4049 20.1023 91.4049 23.1523C91.4049 26.2044 92.4202 28.7012 94.4199 30.5735C96.2371 32.2604 98.4702 33.1194 101.052 33.1194C103.638 33.1194 105.869 32.2604 107.688 30.5705C108.298 30.0002 108.815 29.3697 109.241 28.6841V39.7437H114.483V31.7452C114.734 31.8936 114.998 32.0309 115.275 32.1552C116.394 32.6563 117.611 32.9099 118.888 32.9099C121.136 32.9099 123.072 32.1401 124.641 30.6246C125.553 29.7376 126.228 28.6561 126.671 27.4002C127.07 28.3283 127.603 29.1893 128.285 29.9691C130.109 32.059 132.59 33.1184 135.653 33.1184C137.772 33.1184 139.663 32.5952 141.271 31.5648C142.361 30.8592 143.221 29.9741 143.843 28.9227V32.495H149.086V21.6278C149.086 20.3468 149.464 19.3776 150.246 18.671C150.964 18.0195 151.824 17.7047 152.867 17.7047C153.93 17.7047 154.785 18.0175 155.485 18.666C156.268 19.3776 156.65 20.3468 156.65 21.6278V32.495H161.891V21.0024C161.891 18.5537 161.054 16.5952 159.392 15.1789V15.1789Z" fill="#FF5500"/>
<path fill-rule="evenodd" clip-rule="evenodd" d="M159.869 37.2505L160.618 39.1559L161.362 37.2505H161.891L160.758 39.9277C160.628 40.2354 160.451 40.6443 159.987 40.6443C159.873 40.6443 159.728 40.6303 159.589 40.6032V40.2123C159.685 40.2404 159.766 40.2624 159.873 40.2624C160.106 40.2624 160.181 40.1903 160.365 39.6981L159.318 37.2505H159.869ZM104.361 37.2505L105.111 39.1559L105.855 37.2505H106.384L105.251 39.9277C105.122 40.2354 104.944 40.6443 104.479 40.6443C104.367 40.6443 104.222 40.6303 104.081 40.6032V40.2123C104.179 40.2404 104.259 40.2624 104.367 40.2624C104.599 40.2624 104.674 40.1903 104.858 39.6981L103.812 37.2505H104.361ZM79.744 37.1994C80.607 37.1994 80.9849 37.7226 80.9849 38.3981V38.5816H78.9301C78.9682 39.0827 79.2378 39.3433 79.734 39.3433C80.1219 39.3433 80.3484 39.193 80.4356 38.8622H80.9418C80.8115 39.3954 80.3484 39.7162 79.7119 39.7162C78.9091 39.7162 78.424 39.2341 78.424 38.4573C78.424 37.6855 78.9412 37.1994 79.745 37.1994H79.744ZM132.075 37.1994C132.939 37.1994 133.316 37.7226 133.316 38.3981V38.5816H131.261C131.299 39.0827 131.569 39.3433 132.065 39.3433C132.454 39.3433 132.681 39.193 132.767 38.8622H133.273C133.144 39.3954 132.681 39.7162 132.044 39.7162C131.24 39.7162 130.755 39.2341 130.755 38.4573C130.755 37.6855 131.272 37.1994 132.076 37.1994H132.075ZM148.196 37.1893C148.999 37.1893 149.479 37.6634 149.479 38.4573C149.479 39.2431 148.999 39.7162 148.196 39.7162C147.404 39.7162 146.918 39.2431 146.918 38.4573C146.918 37.6634 147.404 37.1903 148.196 37.1903V37.1893ZM94.3228 37.1893C95.1266 37.1893 95.6057 37.6634 95.6057 38.4573C95.6057 39.2431 95.1266 39.7162 94.3228 39.7162C93.5309 39.7162 93.0448 39.2431 93.0448 38.4573C93.0448 37.6634 93.5309 37.1903 94.3228 37.1903V37.1893ZM124.082 37.1893C124.717 37.1893 125.164 37.3507 125.164 37.9571V39.0917C125.164 39.2661 125.202 39.3443 125.332 39.3443C125.353 39.3443 125.392 39.3343 125.472 39.3343V39.648C125.321 39.6881 125.261 39.6981 125.175 39.6981C124.884 39.6981 124.754 39.5779 124.728 39.3353C124.447 39.5969 124.13 39.7162 123.752 39.7162C123.207 39.7162 122.83 39.4265 122.83 39.0045C122.83 38.2187 123.983 38.1957 124.684 38.1365V38.0163C124.684 37.6955 124.518 37.5712 124.081 37.5712C123.676 37.5712 123.476 37.6955 123.455 37.9982H122.948C122.97 37.7647 123.002 37.6534 123.11 37.5251C123.293 37.3046 123.628 37.1903 124.081 37.1903L124.082 37.1893ZM156.607 37.1994C157.47 37.1994 157.847 37.7226 157.847 38.3981V38.5816H155.792C155.83 39.0827 156.1 39.3433 156.596 39.3433C156.985 39.3433 157.211 39.193 157.297 38.8622H157.804C157.674 39.3954 157.211 39.7162 156.575 39.7162C155.771 39.7162 155.286 39.2341 155.286 38.4573C155.286 37.6855 155.803 37.1994 156.607 37.1994V37.1994ZM135.974 37.1893C136.545 37.1893 137.015 37.4339 137.015 37.9571H136.529C136.519 37.6955 136.33 37.5712 135.952 37.5712C135.645 37.5712 135.424 37.6865 135.424 37.8559C135.424 37.9391 135.494 38.0082 135.666 38.0664L136.497 38.347C136.961 38.5044 137.091 38.6507 137.091 38.9444C137.091 39.4045 136.638 39.7162 135.963 39.7162C135.235 39.7162 134.83 39.4135 134.83 38.8712H135.338C135.348 39.207 135.538 39.3443 135.974 39.3443C136.341 39.3443 136.579 39.207 136.579 38.9955C136.579 38.8893 136.529 38.8442 136.308 38.761L135.424 38.4392C135.068 38.3109 134.928 38.1496 134.928 37.888C134.928 37.475 135.349 37.1903 135.974 37.1903V37.1893ZM101.645 37.1994C102.507 37.1994 102.885 37.7226 102.885 38.3981V38.5816H100.83C100.868 39.0827 101.138 39.3433 101.634 39.3433C102.022 39.3433 102.248 39.193 102.335 38.8622H102.841C102.712 39.3954 102.248 39.7162 101.613 39.7162C100.809 39.7162 100.324 39.2341 100.324 38.4573C100.324 37.6855 100.841 37.1994 101.645 37.1994V37.1994ZM152.617 37.1893C153.006 37.1893 153.334 37.3597 153.443 37.6223C153.503 37.7647 153.513 37.8328 153.513 38.1275V39.657H153.028V38.1957C153.028 37.7366 152.865 37.5712 152.471 37.5712C152.154 37.5712 151.895 37.7226 151.809 37.9391C151.755 38.0724 151.749 38.1185 151.749 38.3981V39.657H151.258V37.2505H151.749V37.5712C152.035 37.2816 152.245 37.1903 152.617 37.1903V37.1893ZM98.1997 37.1893C98.5876 37.1893 98.9164 37.3597 99.0246 37.6223C99.0848 37.7647 99.0948 37.8328 99.0948 38.1275V39.657H98.6097V38.1957C98.6097 37.7366 98.4473 37.5712 98.0544 37.5712C97.7357 37.5712 97.4771 37.7226 97.3909 37.9391C97.3367 38.0724 97.3307 38.1185 97.3307 38.3981V39.657H96.8396V37.2505H97.3307V37.5712C97.6174 37.2816 97.8279 37.1903 98.1997 37.1903V37.1893ZM90.9099 37.1893C91.5473 37.1893 91.7678 37.5351 91.7678 38.0173V39.657H91.2767V38.0854C91.2767 37.7276 91.1314 37.5712 90.8026 37.5712C90.555 37.5712 90.2854 37.7136 90.2203 37.907C90.1561 38.0173 90.1501 38.1095 90.1501 38.3801V39.657H89.659V38.1456C89.659 37.7045 89.5738 37.5712 89.244 37.5712C88.9473 37.5712 88.6827 37.7226 88.5815 37.9661C88.5504 38.0383 88.5444 38.0804 88.5434 38.1937V39.657H88.0522V37.2505H88.5434V37.5532C88.8401 37.2826 89.0395 37.1903 89.3633 37.1903C89.692 37.1903 89.8915 37.2906 90.0689 37.5532C90.3656 37.2826 90.5761 37.1903 90.9109 37.1903L90.9099 37.1893ZM120.221 37.1893C120.857 37.1893 121.078 37.5351 121.078 38.0173V39.657H120.587V38.0854C120.587 37.7276 120.441 37.5712 120.112 37.5712C119.865 37.5712 119.595 37.7136 119.531 37.907C119.466 38.0173 119.461 38.1095 119.461 38.3801V39.657H118.97V38.1456C118.97 37.7045 118.884 37.5712 118.555 37.5712C118.258 37.5712 117.994 37.7226 117.891 37.9661C117.861 38.0383 117.854 38.0804 117.853 38.1937V39.657H117.362V37.2505H117.853V37.5532C118.15 37.2826 118.349 37.1903 118.673 37.1903C119.002 37.1903 119.201 37.2906 119.38 37.5532C119.676 37.2826 119.886 37.1903 120.221 37.1903V37.1893ZM144.239 37.1893C144.876 37.1893 145.097 37.5351 145.097 38.0173V39.657H144.606V38.0854C144.606 37.7276 144.461 37.5712 144.131 37.5712C143.883 37.5712 143.614 37.7136 143.55 37.907C143.485 38.0173 143.479 38.1095 143.479 38.3801V39.657H142.988V38.1456C142.988 37.7045 142.902 37.5712 142.573 37.5712C142.277 37.5712 142.012 37.7226 141.91 37.9661C141.88 38.0383 141.873 38.0804 141.872 38.1937V39.657H141.381V37.2505H141.872V37.5532C142.168 37.2826 142.368 37.1903 142.692 37.1903C143.02 37.1903 143.22 37.2906 143.398 37.5532C143.695 37.2826 143.905 37.1903 144.24 37.1903L144.239 37.1893ZM127.623 36.3674V38.2187L128.771 37.2505H129.407L128.334 38.1456L129.435 39.657H128.841L128.006 38.4302L127.623 38.7339V39.656H127.132V36.3684H127.623V36.3674ZM75.432 36.3674V37.5121C75.6846 37.2916 75.9272 37.1903 76.284 37.1903C76.9856 37.1903 77.1951 37.5351 77.1951 38.0764V39.657H76.709V38.1686C76.709 37.7376 76.5586 37.5712 76.1758 37.5712C75.9272 37.5712 75.7227 37.6534 75.5774 37.8238C75.4641 37.9571 75.432 38.0764 75.432 38.3801V39.657H74.9409V36.3684H75.432V36.3674ZM70.6871 37.2495L71.092 38.6597C71.1351 38.8021 71.1622 38.8712 71.2103 39.1238C71.2584 38.8712 71.2854 38.8031 71.3285 38.6597L71.7495 37.2505H72.3048L72.7087 38.6417C72.7518 38.784 72.7689 38.8301 72.828 39.1008C72.8872 38.8392 72.8982 38.793 72.9463 38.6417L73.3833 37.2505H73.9005L73.0485 39.656H72.5584L72.0131 37.8058L71.4578 39.657H70.9617L70.1478 37.2505H70.6871V37.2495ZM83.5779 37.1893C83.9668 37.1893 84.2945 37.3597 84.4028 37.6223C84.4629 37.7647 84.473 37.8328 84.473 38.1275V39.657H83.9878V38.1957C83.9878 37.7366 83.8255 37.5712 83.4325 37.5712C83.1148 37.5712 82.8552 37.7226 82.769 37.9391C82.7149 38.0724 82.7089 38.1185 82.7089 38.3981V39.657H82.2187V37.2505H82.7099V37.5712C82.9955 37.2816 83.206 37.1903 83.5779 37.1903V37.1893ZM94.3228 37.5702C93.8487 37.5702 93.563 37.888 93.563 38.4573C93.563 39.0136 93.8487 39.3443 94.3228 39.3443C94.8079 39.3443 95.0885 39.0136 95.0885 38.4392C95.0885 37.888 94.8029 37.5712 94.3228 37.5712V37.5702ZM148.196 37.5702C147.721 37.5702 147.436 37.888 147.436 38.4573C147.436 39.0136 147.721 39.3443 148.196 39.3443C148.682 39.3443 148.962 39.0136 148.962 38.4392C148.962 37.888 148.677 37.5712 148.196 37.5712V37.5702ZM124.679 38.4573C124.07 38.5314 123.811 38.5725 123.655 38.6417C123.455 38.7018 123.358 38.8301 123.358 38.9725C123.358 39.207 123.546 39.3433 123.876 39.3433C124.317 39.3433 124.679 39.0927 124.679 38.784V38.4573V38.4573ZM132.066 37.5712C131.629 37.5712 131.358 37.7827 131.278 38.2097H132.82C132.788 37.8058 132.513 37.5712 132.065 37.5712H132.066ZM101.634 37.5712C101.197 37.5712 100.927 37.7827 100.847 38.2097H102.388C102.356 37.8058 102.082 37.5712 101.634 37.5712ZM156.596 37.5712C156.159 37.5712 155.889 37.7827 155.809 38.2097H157.351C157.319 37.8058 157.044 37.5712 156.596 37.5712V37.5712ZM79.734 37.5712C79.297 37.5712 79.0274 37.7827 78.9462 38.2097H80.4887C80.4567 37.8058 80.182 37.5712 79.734 37.5712ZM77.4166 11.8367L82.0273 18.1423L86.636 11.8367H93.8667L85.6427 23.0897L93.8667 34.3417H86.635L82.0263 28.0372L77.4176 34.3417H70.1859L78.4109 23.0897L74.4518 17.6722H62.7828V20.171H72.5734V26.0075H62.7828V34.3428H56.9463V11.8367H77.4166V11.8367ZM167.596 11.8577C168.095 11.8577 168.561 11.984 168.991 12.2376C169.422 12.4902 169.761 12.835 170.013 13.272C170.264 13.708 170.391 14.1791 170.391 14.6853C170.391 15.0752 170.319 15.44 170.176 15.7828C170.033 16.1246 169.831 16.4283 169.572 16.6919C169.311 16.9565 169.013 17.16 168.675 17.3033C168.338 17.4487 167.979 17.5198 167.596 17.5198C167.089 17.5198 166.622 17.3935 166.197 17.1409C165.772 16.8874 165.435 16.5436 165.187 16.1086C164.939 15.6725 164.816 15.1984 164.816 14.6853C164.816 14.1761 164.939 13.705 165.189 13.27C165.438 12.834 165.776 12.4902 166.203 12.2376C166.629 11.984 167.094 11.8577 167.596 11.8577ZM167.596 12.2637C167.167 12.2637 166.771 12.3709 166.408 12.5864C166.044 12.8029 165.756 13.0976 165.546 13.4705C165.335 13.8433 165.229 14.2493 165.229 14.6853C165.229 15.1243 165.334 15.5312 165.546 15.9051C165.756 16.28 166.044 16.5746 166.408 16.7911C166.771 17.0066 167.167 17.1139 167.596 17.1139C168.027 17.1139 168.424 17.0056 168.789 16.7891C169.154 16.5716 169.443 16.2779 169.657 15.9051C169.87 15.5332 169.978 15.1263 169.978 14.6853C169.978 14.2462 169.87 13.8403 169.657 13.4684C169.443 13.0966 169.154 12.8029 168.789 12.5864C168.424 12.3709 168.027 12.2637 167.596 12.2637V12.2637ZM167.772 13.0585C168.136 13.0585 168.417 13.1196 168.616 13.2399C168.814 13.3602 168.914 13.6008 168.914 13.9586C168.914 14.136 168.886 14.2743 168.83 14.3765C168.773 14.4788 168.669 14.577 168.515 14.6712C168.662 14.7464 168.758 14.8396 168.803 14.9509C168.847 15.0621 168.873 15.2245 168.879 15.438C168.886 15.6505 168.896 15.8139 168.91 15.9251C168.925 16.0374 168.975 16.1567 169.058 16.286H168.471C168.434 16.1406 168.415 15.9602 168.412 15.7457C168.41 15.5312 168.402 15.3749 168.387 15.2756C168.372 15.1764 168.317 15.0952 168.225 15.0331C168.13 14.9699 167.969 14.9378 167.742 14.9378H166.925V16.286H166.446V13.0585H167.772ZM167.757 13.5095H166.925V14.4878H167.727C167.903 14.4878 168.042 14.4718 168.146 14.4397C168.248 14.4076 168.322 14.3565 168.366 14.2873C168.411 14.2172 168.434 14.121 168.434 13.9967C168.434 13.8082 168.385 13.6799 168.286 13.6118C168.188 13.5436 168.011 13.5095 167.757 13.5095V13.5095Z" fill="#2B2B2B"/>
<path d="M6.22641 3.29763C5.89664 3.86695 5.58292 4.33202 5.90967 4.99155C6.09009 5.35239 6.6534 5.72124 6.78069 5.78839C7.24476 6.01893 7.68178 6.24144 7.36805 6.24144C6.40282 6.24144 7.54446 7.12749 6.12417 6.12217C5.88762 5.95478 5.40852 5.50374 5.36642 4.82517C5.3173 4.05338 6.01291 3.42392 6.22641 3.29863V3.29763ZM7.05332 8.28517C7.04831 7.8211 7.05332 7.30691 7.29087 6.97213C7.31693 6.93605 7.34099 6.89796 7.37005 6.85186C7.51038 6.62633 7.68077 6.3517 8.17993 5.98986C6.99719 5.56488 6.33767 4.99756 6.24545 4.4493C5.99988 2.98591 9.91194 1.64481 9.85982 1.51551C9.8097 1.38521 8.21401 1.56562 7.777 1.69592C5.56488 2.21513 3.99524 3.61737 3.99524 5.38446C3.99524 6.86789 5.75732 7.8201 7.05332 8.28517V8.28517ZM21.0527 7.02025C20.2038 7.87823 18.9288 7.75996 18.9288 7.75996C20.3962 7.17561 19.3167 6.70752 19.6625 6.78771C20.0113 6.86188 20.2799 6.74761 21.3243 6.3968C22.3668 6.04499 21.9037 6.16226 21.0527 7.02025ZM21.9418 5.38346C21.4005 5.46264 21.2863 5.49973 20.8212 5.49973C20.6728 5.49973 20.3701 5.58693 20.0324 5.7042C19.7587 6.07506 19.459 6.40081 19.1323 6.67946C18.6852 7.06034 18.1881 7.35101 17.6448 7.54947C17.7952 7.66975 17.9916 7.80506 18.2372 7.95441C19.1243 8.49967 19.9722 8.73421 21.4396 7.52642C22.906 6.31762 23.3681 5.38346 23.1375 5.2281C22.906 5.07274 22.482 5.30728 21.9418 5.38346V5.38346ZM16.3979 1.73C13.7308 2.56193 11.2851 3.89 9.14917 5.59896C8.82843 5.61299 8.46358 5.55686 8.15086 5.48168C10.3159 3.64744 12.8177 2.19408 15.554 1.2539C15.8397 1.37919 16.1343 1.55159 16.3979 1.73V1.73ZM26.1605 13.4371C25.2374 19.0531 17.4043 21.3394 15.7865 23.3129C14.7251 22.6354 20.8863 16.9372 21.8135 14.9386C23.1155 12.1311 21.6601 10.2407 23.2598 9.32257C24.6099 8.54778 26.7459 9.88888 26.1615 13.4371H26.1605ZM13.1735 15.2172C12.1992 14.1748 12.6904 13.3298 12.3827 13.0702C12.0198 12.7645 11.8885 12.3005 12.6392 12.4187C13.38 12.538 13.9012 12.3977 14.3632 12.083C15.0899 11.5918 14.9045 10.2397 16.2927 10.0302C17.6829 9.82373 18.7344 10.2096 18.4517 11.9446C18.0818 14.2199 14.5136 16.6505 13.1735 15.2172ZM12.6002 10.2808C13.4471 9.58618 14.0405 9.60723 14.2841 9.91394C14.7201 10.4632 14.254 11.4615 13.3679 11.7031C13.1234 11.7702 12.0028 11.9136 11.7742 11.6369C11.5437 11.3603 11.8344 10.9072 12.6002 10.2808ZM11.5337 14.0565C11.1979 14.24 10.5574 13.5644 10.1184 13.3038C9.6814 13.0432 9.29451 13.1755 8.65102 13.2537C8.00953 13.3298 7.0894 13.2697 7.00421 13.0171C6.85185 12.55 7.3911 12.4217 8.13683 12.2914C8.88356 12.1611 9.34763 12.55 9.65534 12.55C9.96406 12.55 10.3028 12.3295 11.0967 12.7846C11.8183 13.2005 11.8675 13.8751 11.5337 14.0575V14.0565ZM10.0142 17.731C9.39875 18.1981 8.1238 17.8734 8.1238 17.4203C8.1238 16.9512 8.71517 17.2259 9.12612 17.2259C9.53907 17.2259 10.0543 16.8991 9.82273 16.2506C9.71448 15.9479 9.71949 15.3154 10.2076 15.8617C10.6957 16.406 10.785 17.1467 10.0142 17.731V17.731ZM7.59758 15.7966C7.42518 16.0983 6.90297 16.6525 6.4409 16.5483C5.97583 16.4461 5.59194 16.5483 5.28222 16.7307C4.97451 16.9121 3.81583 17.4313 3.76471 16.836C3.71059 16.2115 4.12454 15.2774 4.97451 14.9396C5.82348 14.6018 6.64538 14.3943 7.08339 14.4986C7.5214 14.6018 8.11177 14.8885 7.59758 15.7966V15.7966ZM8.34431 9.38171C8.90962 9.17523 8.78232 9.64231 8.47261 10.0563C8.16389 10.4722 8.31825 11.1749 8.13783 11.3813C7.95942 11.5898 7.18763 11.3984 6.95409 11.0696C6.5682 10.5234 7.778 9.58919 8.34431 9.38171ZM8.6009 6.88894C9.14015 6.47398 10.6597 5.97984 10.9694 5.85054C11.2771 5.72024 12.2544 5.20104 12.5891 5.51175C12.9239 5.82348 12.2032 6.16126 11.9978 6.60428C11.7903 7.0453 11.6119 8.26412 11.662 8.91563C11.7141 9.56313 10.814 8.65403 10.6085 8.13583C10.4011 7.61462 10.4792 7.45926 9.86082 7.64068C9.24439 7.8231 8.06065 7.3049 8.6009 6.88894V6.88894ZM21.9077 7.80005C20.1576 9.02689 18.9328 8.8595 17.9155 8.26112C17.6779 8.1248 17.4815 8.00051 17.3221 7.88425C17.1527 7.93035 16.9813 7.96844 16.8059 8.00051C16.5573 8.04161 16.3228 8.06466 16.1043 8.06466C14.7551 8.06466 14.1999 7.2147 14.1347 6.49002C14.0345 5.37043 14.5717 4.93442 15.3054 4.4944C14.0265 4.20874 11.7321 4.68785 10.0934 5.43558C7.98347 6.3958 7.90529 6.86088 7.6497 7.22472C7.39211 7.59057 7.54646 8.57585 7.47029 8.83845C7.39211 9.09705 7.05733 9.51001 6.64538 10.0292C6.23443 10.5504 6.13119 11.0967 6.15524 11.4074C6.18331 11.7191 6.49102 12.1351 6.64538 12.2644C6.49102 12.549 5.95077 13.9793 5.84853 14.0816C5.61499 14.0816 5.38446 14.4204 5.28222 14.5226C4.94745 14.5747 3.37782 15.2242 3.48106 16.8851C3.58229 18.5199 4.69085 18.8867 5.43558 18.9899C6.08107 19.872 7.34099 20.0554 8.8595 20.0304C9.60623 20.0163 10.365 19.7768 10.9283 19.5563C5.55987 27.8655 12.956 36.0905 15.8727 37.7584C15.2182 36.7029 8.9006 28.3025 21.6822 21.4025C31.9379 15.8667 28.1161 7.28185 23.8281 6.0941C23.5405 6.54815 22.8489 7.14153 21.9077 7.80005V7.80005ZM33.1477 32.4772C33.1146 31.9068 33.8393 31.972 33.9997 32.0712C34.1621 32.1674 34.2573 32.428 34.0638 32.428C33.8714 32.428 33.5356 32.6866 33.9536 32.9633C34.0628 33.0365 33.1798 33.0435 33.1477 32.4762V32.4772ZM37.0698 40.2892C37.3615 40.3925 37.6471 40.4717 37.9137 40.5148C33.8914 43.9908 28.6733 46.1067 22.9631 46.1067C10.2988 46.1067 0 35.7668 0 23.0533C0 17.4784 1.99261 12.3696 5.28924 8.3814C5.5318 8.49165 5.7894 8.57685 6.01893 8.63999C2.72831 12.533 0.731693 17.5606 0.731693 23.0533C0.731693 35.3618 10.7038 45.371 22.9631 45.371C28.3155 45.371 33.2299 43.4636 37.0688 40.2892H37.0698ZM33.9245 24.7613C33.9245 24.8595 33.7611 24.7914 33.7401 24.6951C33.723 24.5979 33.694 24.4115 33.694 24.4115C33.694 24.4115 34.0789 23.9544 34.1751 23.9544C34.2302 23.9544 34.3204 24.208 34.3204 24.3443C34.3204 24.4817 34.2623 24.5578 34.0408 24.5478C33.8183 24.5388 33.9245 24.6651 33.9245 24.7613ZM41.4319 27.638C41.3537 27.7803 41.1512 27.5337 41.071 27.5738C40.9929 27.6139 40.8265 27.5608 40.8265 27.4455C40.8265 27.3282 40.9929 27.237 41.1993 27.2501C41.4048 27.2631 41.5101 27.4956 41.4319 27.638ZM41.5321 29.0031C41.3397 28.9751 41.1873 28.9751 40.9427 29.0151C40.6972 29.0532 40.7623 29.0151 40.4666 29.0031C40.171 28.9891 39.9925 28.6523 40.0557 28.508C40.195 28.1842 40.4797 28.2093 40.6721 28.2634C40.8666 28.3135 41.1873 28.5872 41.3026 28.6663C41.4178 28.7425 41.496 28.7175 41.8168 28.8197C42.1385 28.9229 41.7266 29.0302 41.5331 29.0031H41.5321ZM42.0864 27.4455C42.2668 27.3814 42.3971 27.6129 42.3971 27.7041C42.3971 27.7963 42.2568 27.7673 42.2027 27.7312C42.0102 27.5868 42.0864 27.4455 42.0864 27.4455ZM40.3113 27.1979C40.0797 27.4195 38.9561 27.8775 38.9381 28.4438C38.9181 29.0091 39.9063 29.7308 41.0851 29.5343C42.2608 29.3399 42.6407 28.53 42.6276 28.1732C42.6086 27.646 41.9711 26.4562 40.8916 26.0483C40.9117 26.3219 40.616 26.9043 40.3103 27.1979H40.3113ZM39.2177 36.8773C39.4954 37.1299 39.6066 37.9218 39.5154 38.1954C39.4353 38.4289 39.1135 38.5562 38.9742 38.442C38.6775 38.1954 38.3086 37.6251 38.4219 37.58C38.8519 37.4036 38.9431 36.6227 39.2187 36.8773H39.2177ZM38.2164 30.7682C38.1623 30.4434 38.1894 29.7679 38.6013 30.0165C39.0123 30.262 39.308 30.0916 39.2819 30.2219C39.2578 30.3522 39.1426 30.4044 39.0123 30.4966C38.912 30.5667 38.5612 30.9236 38.4971 31.0789C38.4329 31.2363 38.2665 31.092 38.2164 30.7682ZM36.6458 27.9767C36.3411 26.3019 40.2862 26.5615 39.2819 27.1067C39.2819 27.1067 38.5372 27.4816 38.3948 27.8986C38.014 29.0091 36.8082 28.8698 36.6458 27.9767V27.9767ZM35.5493 36.1176C34.8536 36.3521 33.8122 36.4093 33.2319 36.1777C32.2516 35.7818 34.0428 35.7698 35.1433 34.7173C35.7748 34.1129 35.9552 33.0224 36.9956 33.722C37.9598 34.3715 36.2439 35.885 35.5493 36.1176ZM32.2466 33.1567C32.0692 32.84 32.1414 32.403 32.3609 32.1835C32.5884 31.956 33.0084 31.7024 33.8934 31.6392C34.6351 31.5871 35.019 31.3315 35.1864 31.2513C35.3568 31.1711 35.5372 32.9563 33.9816 33.4023C33.1397 33.6429 32.432 33.4885 32.2466 33.1567V33.1567ZM31.4247 26.6797C31.4638 27.3333 30.7431 27.7903 30.4094 27.5508C30.0746 27.3082 30.2119 25.8548 30.4926 24.8415C31.3375 21.7904 33.9205 20.6598 34.6351 20.759C34.587 21.1459 32.8129 21.5429 32.1093 23.0143C31.2042 24.9046 31.3836 26.0242 31.4247 26.6797ZM28.1321 30.1237C25.6463 33.3111 20.6879 28.528 26.6898 24.5628C28.5561 23.33 29.7839 21.601 30.3843 20.747C30.5768 21.8746 28.7285 24.3303 28.2865 25.6884C27.5067 28.088 29.3098 28.6132 28.1321 30.1237V30.1237ZM20.4223 39.4282C18.1841 38.0029 19.1633 34.9248 19.3969 36.0324C19.9091 38.456 22.9691 38.2756 24.185 38.912C25.2675 39.4774 23.0112 41.0791 20.4223 39.4282ZM36.5887 21.179C37.2241 21.3544 36.8974 21.8616 36.6829 21.7443C36.4724 21.627 35.8339 21.7253 35.3328 22.0149C34.8316 22.3106 33.9245 23.2638 33.7321 23.5355C33.5376 23.8071 33.4033 24.3343 33.4424 24.7232C33.288 24.5288 33.2389 24.0687 33.3462 23.6527C33.5005 23.0503 34.2132 22.1533 35.025 21.588C35.8339 21.0237 36.5887 21.179 36.5887 21.179V21.179ZM35.1413 26.0683C35.6445 25.919 36.2208 25.5431 35.9702 25.9711C35.7187 26.4001 35.0862 26.9634 34.1961 26.8872C33.4414 26.8231 32.5162 26.1836 32.5533 25.5231C32.5884 24.9167 32.9974 24.8806 33.1918 25.0349C33.3843 25.1913 33.8634 26.4472 35.1413 26.0683V26.0683ZM38.8068 29.2477C38.9742 29.405 39.0123 29.6636 39.5786 29.7689C40.4285 29.9242 40.0667 29.9754 39.8743 30.0165C39.6818 30.0535 39.0524 30.0275 38.7296 29.8862C38.446 29.7599 38.1563 29.403 38.2164 29.2757C38.3447 28.9891 38.6394 29.0933 38.8068 29.2477V29.2477ZM39.5014 34.7334C39.8302 33.6108 39.0002 32.1243 38.884 31.9299C38.7677 31.7354 38.6324 31.6011 38.6534 31.3646C38.6715 31.133 39.4824 30.2941 39.6758 30.1187C40.2161 30.2159 40.5178 30.0165 40.6461 29.8461C41.0951 29.834 41.3537 29.6516 41.3537 29.6516C41.3777 29.6406 41.4028 29.6246 41.4259 29.6115C41.2244 29.6817 40.7433 29.7569 40.6841 29.7569C40.0086 29.7569 39.338 29.5333 38.9461 29.1254C38.7416 28.9119 38.6414 28.6804 38.6454 28.4558C38.6665 27.5477 39.5134 27.2992 39.9384 26.9253C40.3834 26.5354 40.6481 25.7215 40.6481 25.7215C40.6481 25.7215 41.2705 25.6193 42.0613 26.8291C42.0613 26.1265 41.6875 25.7526 41.3737 25.484C40.9868 25.1532 40.2732 25.3086 40.2732 25.3086C39.2107 24.3163 38.3628 24.5288 37.9959 24.5478C37.5329 24.5729 36.9736 24.8806 36.3942 25.0349C36.4985 24.8475 36.5927 24.6791 36.6789 24.5298C36.6338 24.5418 36.5826 24.5508 36.5185 24.5508C36.4985 24.5508 36.4764 24.5418 36.4544 24.5328C36.4614 24.5358 36.4614 24.5428 36.4674 24.5428C36.3672 24.6821 36.2769 24.7934 36.2018 24.8595C35.7958 25.2294 35.7778 25.2314 35.2195 25.4048C34.6582 25.5792 33.6739 25.1522 33.6158 24.5478C33.5587 23.9464 34.1179 23.4583 35.025 22.5823C35.9321 21.7052 36.743 21.9789 37.0327 22.0951C37.0327 22.0951 37.5068 22.3627 37.5018 22.6494C37.5218 22.6504 37.5619 22.6624 37.579 22.6675C37.602 22.6745 37.6291 22.6845 37.6541 22.6955C37.8416 21.5178 37.0898 20.8573 36.5887 20.6137C36.0675 20.3601 35.5262 20.9846 35.5453 20.8472C35.5653 20.7119 36.0855 18.3354 35.2365 15.6472C34.0017 12.1231 31.2253 9.22234 26.9323 7.48833C29.0913 8.82542 35.2145 17.9876 22.9631 24.4556C11.7191 30.3913 15.2653 37.602 18.8707 39.8011C11.3723 37.9488 5.81045 31.1711 5.81045 23.0884C5.81045 22.1853 5.87961 21.2983 6.01291 20.4323C5.67112 20.3721 5.11584 19.5994 4.73696 19.7006C4.53549 20.7991 4.43025 21.9307 4.43025 23.0884C4.43025 33.3602 12.7445 41.6875 22.9992 41.6875C24.4957 41.6875 25.95 41.5111 27.3433 41.1763C26.9484 40.7794 26.6958 40.3644 26.4622 39.9735C26.4422 39.9314 26.4201 39.8933 26.3991 39.8492C25.3707 37.7163 26.9143 34.7554 26.9143 34.7554C26.9143 34.7554 30.0465 37.0788 31.4999 36.9756C31.6573 37.184 32.5022 38.5552 32.1063 40.0106C33.4274 39.6588 34.9439 39.1737 35.9833 38.5863C36.3922 38.901 37.2362 39.4032 37.61 39.5846C38.6905 40.1108 39.4042 39.8963 39.6949 39.5465C39.9434 39.2428 40.2331 37.2442 38.9291 35.9783C39.1837 35.5753 39.3751 35.1614 39.5014 34.7334V34.7334ZM29.7569 40.3253C28.2704 40.4045 28.0008 39.2147 27.8655 38.7096C27.7292 38.2024 28.2905 37.3464 28.2905 37.3464C28.3857 36.9545 29.1003 37.3835 29.389 37.5579C29.6787 37.7333 30.7592 37.9288 30.7221 38.1042C30.682 38.2806 29.0242 38.2415 28.9861 38.455C28.946 38.6705 30.2189 38.8038 30.6048 38.7858C30.9917 38.7657 31.2413 40.2471 29.7569 40.3253ZM31.2994 37.2883C29.6987 37.3635 27.2481 35.9031 27.2481 35.9031C27.1899 36.0003 26.1285 38.026 26.804 39.6828C27.4796 41.3367 29.37 41.6494 30.259 41.3567C31.2463 41.033 32.5353 39.7209 31.2994 37.2873V37.2883ZM12.6392 10.6166C12.6392 10.4291 13.2306 10.1455 13.4642 10.6406C13.6686 11.0836 13.3339 11.3443 13.1033 11.3443C12.946 11.3443 12.6142 11.2139 12.6663 11.0315C12.6964 10.9193 13.0712 11.1097 13.0251 10.798C13.0001 10.6176 12.6392 10.7479 12.6392 10.6176V10.6166ZM45.9263 23.0533C45.9263 28.7044 43.8825 33.8784 40.5097 37.8937C40.4696 37.5349 40.4245 37.184 40.3774 36.8854C43.3844 33.0785 45.1936 28.2774 45.1936 23.0533C45.1936 10.7469 35.2205 0.7347 22.9631 0.7347C22.2445 0.7347 21.5328 0.776798 20.8302 0.844955C20.5766 0.641484 20.2338 0.424983 19.897 0.229531C20.9014 0.094218 21.9207 0 22.9631 0C35.6244 0 45.9263 10.3399 45.9263 23.0533ZM18.9589 3.36278C18.8105 4.25485 17.9175 4.93843 17.4815 5.26819C15.2974 6.91801 16.6175 5.19402 15.7274 5.6621C15.4427 5.46765 17.1727 4.31799 17.2299 4.20273C17.6308 4.37312 19.2235 2.72932 17.4855 1.18173C17.714 1.39423 19.1593 2.16501 18.9589 3.36278V3.36278ZM17.7842 2.162C18.0047 2.86062 17.4744 3.69555 16.2917 4.42424C15.109 5.14791 14.4454 5.48469 14.5687 6.44692C14.6218 6.85587 14.9295 7.87823 16.7287 7.56551C18.5309 7.25379 19.7136 6.05802 20.4613 4.5786C21.2071 3.09917 21.2632 0.823907 17.8152 0.198459C15.0087 -0.265615 12.981 0.741716 12.981 0.843953C13.0332 1.05244 17.2118 0.342793 17.7842 2.162V2.162ZM37.171 23.7018L37.0868 23.8392C37.0588 23.788 37.0267 23.7439 36.9906 23.7089C37.0006 23.6888 37.0106 23.6718 37.0227 23.6537C37.0668 23.6758 37.1199 23.6928 37.171 23.7029V23.7018ZM40.1479 24.2722C40.1529 24.199 40.188 23.4102 40.188 23.0884C40.188 13.8881 32.9863 6.37475 23.9204 5.89464C24.1298 5.58091 24.3223 5.04868 24.4696 4.54552C34.0378 5.29726 41.5692 13.3118 41.5692 23.0884C41.5692 23.5525 41.502 24.6801 41.492 24.7854C41.1853 24.4776 40.5759 24.7012 40.1489 24.2722H40.1479ZM36.9144 24.0537C37.0086 24.1118 37.1169 24.3343 37.1079 24.3744L36.7941 24.1599C36.728 24.0697 36.8603 24.0196 36.9144 24.0537V24.0537ZM36.5185 24.4416C36.6819 24.4416 36.7591 24.3634 36.8864 24.3634C37.0106 24.3634 37.2722 24.644 37.156 24.3153C37.0407 23.9835 36.9335 23.5946 36.721 23.8662C36.6759 23.9264 36.3561 24.4416 36.5185 24.4416V24.4416ZM35.0621 23.6567C34.989 23.6497 34.6843 23.6096 34.6843 23.6096C34.586 23.5615 34.6813 23.4543 34.7444 23.4593C34.8557 23.4673 35.0501 23.6177 35.0621 23.6567ZM34.8877 23.2338C34.8015 23.2037 34.6091 23.342 34.4437 23.4583C34.2793 23.5746 34.3395 23.8281 34.3395 23.8281C34.3395 23.8281 34.5299 23.77 34.6361 23.751C34.7915 23.7219 35.1483 23.8181 35.1874 23.7319C35.2646 23.5946 34.9669 23.2608 34.8877 23.2338ZM38.1713 23.4783C38.3237 23.6006 38.441 23.8652 38.4129 23.8913C38.3137 23.8111 37.9167 23.4743 37.9167 23.4743C37.8265 23.35 38.0861 23.4112 38.1713 23.4783ZM38.5743 24.1198C38.6996 24.0537 38.3718 23.5174 38.2465 23.321C38.1202 23.1275 37.7153 22.8168 37.5519 22.7777C37.3584 22.7276 37.0648 23.1405 37.0407 23.2147C36.8763 23.7109 37.2712 23.5545 37.7925 23.6718C38.3137 23.788 38.448 24.187 38.5743 24.1208V24.1198ZM36.6087 22.474C36.5486 22.464 36.4323 22.3106 36.4323 22.3106C36.4423 22.2605 36.4724 22.2405 36.5486 22.1823C36.6247 22.1242 36.6939 22.2505 36.731 22.2314C36.7691 22.2114 36.8192 22.1924 36.9335 22.2314C37.0497 22.2695 37.0598 22.3377 37.0988 22.3377C37.1359 22.3377 37.1931 22.3377 37.2612 22.3577C37.3294 22.3778 37.3284 22.4259 37.3785 22.5321C37.4286 22.6444 37.2783 22.6374 37.2612 22.6675C37.2422 22.7075 37.1931 22.7386 37.146 22.6675C37.0988 22.6013 37.0317 22.5231 37.0317 22.5231C37.0317 22.5231 36.9535 22.5923 36.9044 22.5612C36.8563 22.5321 36.7811 22.455 36.751 22.4349C36.721 22.4149 36.6638 22.484 36.6087 22.475V22.474ZM36.1336 22.6805C36.3561 22.7958 36.6087 23.2428 36.5877 23.322C36.4423 23.2428 35.854 22.894 35.854 22.894C35.6996 22.7176 36.0093 22.6133 36.1336 22.6805V22.6805ZM35.4661 23.0092C35.5934 23.0012 35.9011 23.0914 36.0464 23.1666C36.1827 23.2338 36.712 23.5946 36.7581 23.5746C36.8082 23.5545 36.7691 23.0183 36.3852 22.6023C35.9241 22.1011 35.6034 22.3487 35.4871 22.4259C35.3708 22.5031 35.1974 22.7466 35.1974 22.8539C35.1974 22.9722 35.3418 23.0183 35.4661 23.0092" fill="#FF5500"/>
</svg>
